<svg width="170" height="90" viewBox="0 0 170 90" fill="none" xmlns="http://www.w3.org/2000/svg">
<rect x="0.5" y="0.5" width="169" height="89" rx="3.5" stroke="#AFB1B8"/>
<path d="M59.4876 61.2777C59.7175 61.5633 59.84 61.9211 59.8336 62.2883C59.8453 62.5278 59.8032 62.7669 59.7104 62.9879C59.6176 63.2089 59.4765 63.4061 59.2975 63.5649C58.851 63.9036 58.2977 64.0691 57.7393 64.0311H55V57.6262H57.6832C58.2129 57.5908 58.7383 57.7412 59.1698 58.0517C59.3431 58.1973 59.4803 58.3814 59.5706 58.5893C59.6609 58.7973 59.7019 59.0235 59.6902 59.2501C59.706 59.6034 59.5954 59.9508 59.3786 60.2295C59.1704 60.4839 58.8826 60.6604 58.5621 60.7301C58.9255 60.7967 59.2535 60.9907 59.4876 61.2777ZM56.2746 60.3108H57.4215C57.6821 60.3302 57.941 60.2546 58.1507 60.098C58.2368 60.0197 58.3038 59.9225 58.3465 59.814C58.3892 59.7055 58.4064 59.5885 58.3969 59.4722C58.405 59.3564 58.3874 59.2402 58.3453 59.1319C58.3033 59.0237 58.2379 58.9262 58.1538 58.8465C57.9378 58.6854 57.6709 58.6087 57.4028 58.6306H56.2746V60.3108ZM58.2629 62.767C58.3549 62.6868 58.4273 62.5864 58.4743 62.4735C58.5213 62.3606 58.5418 62.2383 58.534 62.1162C58.541 61.9927 58.5197 61.8692 58.4716 61.7552C58.4235 61.6413 58.35 61.54 58.2567 61.4591C58.0323 61.2921 57.7563 61.2101 57.4776 61.2276H56.2746V62.9892H57.4931C57.7674 63.0051 58.0389 62.9267 58.2629 62.767Z" fill="#AFB1B8"/>
<path d="M64.9724 64.0312L63.4797 61.528H62.9187V64.0312H61.6348V57.6262H64.0656C64.6783 57.5833 65.284 57.7781 65.7578 58.1706C66.0976 58.5183 66.3025 58.9763 66.3357 59.4622C66.3688 59.9482 66.228 60.43 65.9385 60.8209C65.6386 61.1658 65.229 61.3958 64.7792 61.4717L66.3686 64.0312H64.9724ZM62.9187 60.655H63.969C64.6982 60.655 65.0628 60.3317 65.0628 59.6851C65.0703 59.553 65.0503 59.4208 65.0041 59.297C64.958 59.1731 64.8867 59.0602 64.7948 58.9654C64.5644 58.773 64.2676 58.6796 63.969 58.7057H62.9063L62.9187 60.655Z" fill="#AFB1B8"/>
<path d="M71.9908 62.7421H69.4322L68.9803 64.0312H67.634L69.9838 57.6982H71.4392L73.7796 64.0312H72.4333L71.9908 62.7421ZM71.648 61.7721L70.7131 59.0687L69.7781 61.7721H71.648Z" fill="#AFB1B8"/>
<path d="M80.7759 64.0312H79.5013L76.6436 59.6757V64.0312H75.3721V57.6262H76.6436L79.5013 62.0068V57.6262H80.7759V64.0312Z" fill="#AFB1B8"/>
<path d="M88.0497 62.4981C87.7862 62.9817 87.3846 63.375 86.8966 63.6276C86.3418 63.909 85.7261 64.0477 85.1047 64.0313H82.8359V57.6263H85.1047C85.725 57.61 86.3399 57.7453 86.8966 58.0206C87.3845 58.2674 87.7865 58.6569 88.0497 59.1376C88.3121 59.6585 88.4488 60.2341 88.4488 60.8178C88.4488 61.4016 88.3121 61.9772 88.0497 62.4981ZM86.5912 62.3448C86.955 61.9193 87.155 61.377 87.155 60.8163C87.155 60.2555 86.955 59.7133 86.5912 59.2878C86.1515 58.9024 85.5781 58.7067 84.9956 58.7433H84.1106V62.8892H84.9956C85.5781 62.9258 86.1515 62.7302 86.5912 62.3448Z" fill="#AFB1B8"/>
<path d="M72.7886 22C72.7886 22 89.2401 28.236 88.8911 37.2599V52.5229C88.8911 52.5229 72.452 46.2838 72.7948 37.2599L72.7886 22Z" fill="#AFB1B8"/>
<path d="M103.548 48.9497C106.655 46.8029 110.249 45.4732 114 45.0824V40.3044C109.677 41.9772 106.01 45.0102 103.548 48.9497Z" fill="#AFB1B8"/>
<path d="M101.681 50.3889C104.224 45.2477 108.633 41.2804 114 39.303V25.5356C114 25.5356 90.5708 34.4187 91.0663 47.2693V68.9999C91.0663 68.9999 92.1103 68.6025 93.7527 67.8578C93.7527 67.1632 93.7527 66.4623 93.8275 65.7583C94.3124 59.7925 97.1372 54.2641 101.681 50.3889Z" fill="#AFB1B8"/>
<path d="M99.4525 58.4616C99.5756 56.9545 99.8502 55.4638 100.272 54.0122C97.4429 57.3588 95.7296 61.5116 95.3731 65.8866C95.3388 66.2996 95.3201 66.7126 95.3108 67.1382C96.6415 66.4967 98.1904 65.6957 99.8171 64.7539C99.402 62.684 99.2792 60.5658 99.4525 58.4616Z" fill="#AFB1B8"/>
<path d="M100.384 58.5398C100.228 60.4436 100.326 62.3597 100.674 64.2377C107.075 60.3922 114.268 54.4503 113.991 47.2693V46.6436C109.417 47.1573 105.138 49.1646 101.812 52.357C101.033 54.3354 100.552 56.4192 100.384 58.5398Z" fill="#AFB1B8"/>
</svg>
